<?xml version="1.0" encoding="UTF-8"?><svg id="Layer_2" xmlns="http://www.w3.org/2000/svg" viewBox="0 0 640 180"><defs><style>.cls-1{fill:#fff;opacity:0;}</style></defs><g id="Layer_1-2"><rect class="cls-1" width="640" height="180"/><path d="m144.6,173.05h-64.55c-.83,0-1.5-.67-1.5-1.5s.67-1.5,1.5-1.5h63.05v-19.02c0-2.25,1-4.37,2.74-5.8,1.74-1.43,4.01-2,6.22-1.56l6.45,1.29c2.38.48,4.82-.14,6.7-1.67s2.95-3.81,2.95-6.24-1.08-4.7-2.95-6.24c-1.88-1.54-4.32-2.15-6.69-1.67l-6.45,1.29c-2.21.44-4.48-.13-6.22-1.56-1.74-1.43-2.74-3.54-2.74-5.8v-19.02h-20.29c-2.26,0-4.37-1-5.8-2.74-1.43-1.74-2-4.01-1.55-6.22l1.29-6.45c.47-2.38-.14-4.82-1.67-6.7-1.54-1.88-3.81-2.95-6.24-2.95s-4.7,1.08-6.24,2.95-2.15,4.32-1.67,6.7l1.29,6.45c.44,2.21-.13,4.48-1.56,6.22-1.43,1.74-3.54,2.74-5.8,2.74h-14.79c-.83,0-1.5-.67-1.5-1.5s.67-1.5,1.5-1.5h14.79c1.35,0,2.62-.6,3.48-1.65.86-1.05,1.2-2.41.93-3.73l-1.29-6.45c-.65-3.26.19-6.61,2.3-9.19,2.11-2.57,5.23-4.05,8.56-4.05s6.45,1.48,8.56,4.05c2.11,2.57,2.95,5.92,2.3,9.18l-1.29,6.45c-.26,1.33.08,2.69.93,3.73.86,1.05,2.13,1.65,3.48,1.65h21.79c.83,0,1.5.67,1.5,1.5v20.52c0,1.35.6,2.62,1.65,3.48,1.04.86,2.4,1.2,3.73.93l6.45-1.29c3.26-.65,6.61.19,9.18,2.3,2.57,2.11,4.05,5.23,4.05,8.56s-1.48,6.45-4.05,8.56c-2.57,2.11-5.92,2.95-9.18,2.3l-6.45-1.29c-1.33-.26-2.69.08-3.73.93-1.05.86-1.65,2.13-1.65,3.48v20.52c0,.83-.67,1.5-1.5,1.5Z"/><path d="m73.05,97.03c-.83,0-1.5-.67-1.5-1.5v-13.52c0-1.35-.6-2.62-1.65-3.48-1.05-.86-2.41-1.2-3.73-.93l-6.45,1.29c-3.26.65-6.61-.19-9.18-2.3-2.57-2.11-4.05-5.23-4.05-8.56s1.48-6.45,4.05-8.56c2.57-2.11,5.93-2.95,9.18-2.3l6.45,1.29c1.33.27,2.69-.08,3.73-.93,1.05-.86,1.65-2.13,1.65-3.48v-19.02h-20.29c-2.25,0-4.37-1-5.8-2.74-1.43-1.74-2-4.01-1.56-6.22l1.29-6.45c.47-2.38-.14-4.82-1.67-6.7-1.54-1.88-3.81-2.95-6.24-2.95s-4.7,1.08-6.24,2.95c-1.54,1.88-2.15,4.32-1.67,6.7l1.29,6.45c.44,2.21-.13,4.48-1.56,6.22-1.43,1.74-3.54,2.74-5.8,2.74H3v60.51c0,.83-.67,1.5-1.5,1.5s-1.5-.67-1.5-1.5v-62.01c0-.83.67-1.5,1.5-1.5h21.79c1.35,0,2.62-.6,3.48-1.65.86-1.05,1.2-2.41.93-3.73l-1.29-6.45c-.65-3.26.19-6.61,2.3-9.19,2.11-2.57,5.23-4.05,8.56-4.05s6.45,1.48,8.56,4.05c2.11,2.57,2.95,5.92,2.3,9.19l-1.29,6.45c-.26,1.33.08,2.69.93,3.73.86,1.05,2.13,1.65,3.48,1.65h21.79c.83,0,1.5.67,1.5,1.5v20.52c0,2.25-1,4.37-2.74,5.8-1.74,1.43-4.01,2-6.22,1.56l-6.45-1.29c-2.38-.48-4.82.14-6.7,1.67-1.88,1.54-2.95,3.81-2.95,6.24s1.08,4.7,2.95,6.24c1.88,1.54,4.31,2.15,6.7,1.67l6.45-1.29c2.21-.44,4.48.13,6.22,1.56,1.74,1.43,2.74,3.54,2.74,5.8v13.52c0,.83-.67,1.5-1.5,1.5Z"/><path d="m73.05,173.05H1.5c-.83,0-1.5-.67-1.5-1.5v-69.01c0-.83.67-1.5,1.5-1.5h21.79c2.25,0,4.37,1,5.8,2.74,1.43,1.74,2,4.01,1.56,6.22l-1.29,6.45c-.47,2.38.14,4.82,1.67,6.7s3.81,2.95,6.24,2.95,4.7-1.08,6.24-2.95,2.15-4.32,1.67-6.7l-1.29-6.45c-.44-2.21.13-4.48,1.56-6.22,1.43-1.74,3.54-2.74,5.8-2.74h21.79c.83,0,1.5.67,1.5,1.5v20.52c0,1.35.6,2.62,1.65,3.48,1.05.86,2.41,1.2,3.73.93l6.45-1.29c3.26-.65,6.61.19,9.18,2.3,2.57,2.11,4.05,5.23,4.05,8.56s-1.48,6.45-4.05,8.56c-2.57,2.11-5.92,2.95-9.18,2.3l-6.45-1.29c-1.33-.26-2.69.08-3.73.93-1.05.86-1.65,2.13-1.65,3.48v20.52c0,.83-.67,1.5-1.5,1.5Zm-70.05-3h68.55v-19.02c0-2.25,1-4.37,2.74-5.8,1.74-1.43,4.02-2,6.22-1.56l6.45,1.29c2.38.48,4.82-.14,6.7-1.67,1.88-1.54,2.95-3.81,2.95-6.24s-1.08-4.7-2.95-6.24c-1.88-1.54-4.32-2.15-6.69-1.67l-6.45,1.29c-2.21.44-4.48-.13-6.22-1.56-1.74-1.43-2.74-3.54-2.74-5.8v-19.02h-20.29c-1.35,0-2.62.6-3.48,1.65-.86,1.05-1.2,2.41-.93,3.73l1.29,6.45c.65,3.26-.19,6.61-2.3,9.19-2.11,2.57-5.23,4.05-8.56,4.05s-6.45-1.48-8.56-4.05c-2.11-2.57-2.95-5.92-2.3-9.19l1.29-6.45c.26-1.33-.08-2.69-.93-3.73-.86-1.05-2.13-1.65-3.48-1.65H3v66.01Z"/><path d="m144.6,97.03c-.83,0-1.5-.67-1.5-1.5v-13.52c0-2.25,1-4.37,2.74-5.8,1.74-1.43,4.01-2,6.22-1.56l6.1,1.22c2.54.51,5.14-.16,7.14-1.83,1.87-1.56,2.91-3.82,2.86-6.19-.05-2.39-1.15-4.62-3.02-6.12-1.87-1.5-4.28-2.09-6.63-1.62l-6.45,1.29c-2.21.44-4.48-.13-6.22-1.56-1.74-1.43-2.74-3.54-2.74-5.8v-19.02h-20.29c-1.35,0-2.62.6-3.48,1.65-.86,1.05-1.2,2.41-.93,3.73l1.29,6.45c.65,3.26-.18,6.61-2.29,9.18-2.11,2.57-5.23,4.05-8.56,4.05s-6.45-1.48-8.56-4.05c-2.11-2.57-2.95-5.92-2.3-9.19l1.29-6.45c.26-1.33-.08-2.69-.93-3.73-.86-1.05-2.13-1.65-3.48-1.65h-14.79c-.83,0-1.5-.67-1.5-1.5s.67-1.5,1.5-1.5h14.79c2.25,0,4.37,1,5.8,2.74,1.43,1.74,2,4.01,1.56,6.22l-1.29,6.45c-.47,2.38.14,4.82,1.67,6.7,1.54,1.88,3.81,2.95,6.24,2.95s4.7-1.08,6.24-2.95c1.54-1.88,2.15-4.32,1.67-6.69l-1.29-6.45c-.44-2.21.12-4.48,1.55-6.22,1.43-1.74,3.54-2.74,5.8-2.74h21.79c.83,0,1.5.67,1.5,1.5v20.52c0,1.35.6,2.62,1.65,3.48,1.05.86,2.41,1.2,3.73.93l6.45-1.29c3.21-.64,6.53.17,9.09,2.22,2.56,2.06,4.07,5.11,4.14,8.39.07,3.28-1.36,6.4-3.93,8.55-2.7,2.26-6.22,3.16-9.65,2.47l-6.1-1.22c-1.32-.27-2.69.08-3.73.93-1.05.86-1.65,2.13-1.65,3.48v13.52c0,.83-.67,1.5-1.5,1.5Z"/></g></svg>