<?xml version="1.0" encoding="UTF-8"?><svg id="Layer_2" xmlns="http://www.w3.org/2000/svg" viewBox="0 0 120 140"><defs><style>.cls-1{fill:#fff;opacity:0;}</style></defs><g id="Layer_1-2"><rect class="cls-1" width="120" height="140"/><path d="m88.49,38.52c-10.34-.54-23.67,7.46-24.84,20.7-1.25,14.05,9.77,26.01,22.7,24.88,3.32-.29,6.16-1.05,8.25-2.16-.6,1.87-2.33,6.39-6.85,10.15-4.72,3.93-9.73,4.73-11.66,4.94l1.89,4.47c18.74,0,33.99-15.25,33.99-33.99,0-17.74-9.84-28.29-23.49-29Z"/><path d="m32.96,38.52c-10.34-.54-23.67,7.46-24.84,20.7-1.25,14.05,9.77,26.01,22.7,24.88,3.32-.29,6.16-1.05,8.25-2.16-.6,1.87-2.33,6.39-6.85,10.15-4.72,3.93-9.73,4.73-11.66,4.94l1.89,4.47c18.74,0,33.99-15.25,33.99-33.99,0-17.74-9.84-28.29-23.49-29Z"/></g></svg>