<?xml version="1.0" encoding="UTF-8"?>
<svg id="Layer_2" data-name="Layer 2" xmlns="http://www.w3.org/2000/svg" viewBox="0 0 640 180">
  <defs>
    <style>
      .cls-1 {
        fill: none;
        stroke: #000;
        stroke-linecap: round;
        stroke-miterlimit: 10;
        stroke-width: 3px;
      }

      .cls-2 {
        fill: #fff;
        opacity: 0;
        stroke-width: 0px;
      }
    </style>
  </defs>
  <g id="Layer_2-2" data-name="Layer 2">
    <g>
      <rect class="cls-2" width="640" height="180"/>
      <g>
        <g>
          <line class="cls-1" x1="316.96" y1="95.14" x2="342.27" y2="95.14"/>
          <polyline class="cls-1" points="332.96 85.84 342.27 95.14 332.96 104.45"/>
        </g>
        <g>
          <polyline class="cls-1" points="396.71 116.94 368.91 116.94 368.91 68.01 396.71 68.01"/>
          <polygon class="cls-1" points="406.71 116.94 471.3 166.74 471.3 18.22 406.71 68.01 406.71 116.94"/>
        </g>
        <g>
          <path class="cls-1" d="M254.6,167.35h-85.9V12.65h118.9v121.7l-33,33Z"/>
          <polyline class="cls-1" points="253.16 167.35 253.16 132.91 273.5 132.91"/>
          <line class="cls-1" x1="196.77" y1="41.03" x2="259.54" y2="41.03"/>
          <line class="cls-1" x1="196.77" y1="63.43" x2="259.54" y2="63.43"/>
          <line class="cls-1" x1="196.77" y1="85.84" x2="259.54" y2="85.84"/>
          <line class="cls-1" x1="196.77" y1="108.24" x2="220.29" y2="108.24"/>
        </g>
      </g>
    </g>
  </g>
</svg>