<?xml version="1.0" encoding="UTF-8"?>
<svg id="Layer_2" data-name="Layer 2" xmlns="http://www.w3.org/2000/svg" viewBox="0 0 640 180">
  <defs>
    <style>
      .cls-1, .cls-2 {
        stroke-width: 0px;
      }

      .cls-3 {
        opacity: 0;
      }

      .cls-2 {
        fill: #fff;
      }
    </style>
  </defs>
  <g id="Layer_2-2" data-name="Layer 2">
    <g>
      <g class="cls-3">
        <rect class="cls-2" width="640" height="180"/>
      </g>
      <g>
        <path class="cls-1" d="M358.91,114.91h-142.57c-5.64,0-10.23-4.59-10.23-10.23v-14.41l-15.16-16.44h15.27c.73-4.93,4.99-8.73,10.12-8.73h142.57c5.64,0,10.23,4.59,10.23,10.23v29.35c0,5.64-4.59,10.23-10.23,10.23ZM197.8,76.83l11.31,12.26v15.59c0,3.99,3.24,7.23,7.23,7.23h142.57c3.99,0,7.23-3.24,7.23-7.23v-29.35c0-3.99-3.24-7.23-7.23-7.23h-142.57c-3.99,0-7.23,3.24-7.23,7.23v1.5h-11.31Z"/>
        <path class="cls-1" d="M422.44,171.14h-142.57c-5.64,0-10.23-4.59-10.23-10.23v-29.35c0-5.64,4.59-10.23,10.23-10.23h142.57c5.13,0,9.4,3.8,10.12,8.73h16.71l-16.6,16.47v14.38c0,5.64-4.59,10.23-10.23,10.23ZM279.86,124.33c-3.99,0-7.23,3.24-7.23,7.23v29.35c0,3.99,3.24,7.23,7.23,7.23h142.57c3.99,0,7.23-3.24,7.23-7.23v-15.62l12.32-12.22h-12.32v-1.5c0-3.99-3.24-7.23-7.23-7.23h-142.57ZM432.67,131.56h0,0Z"/>
        <path class="cls-1" d="M392.44,58.67h-82.57c-5.64,0-10.23-4.59-10.23-10.23v-29.35c0-5.64,4.59-10.23,10.23-10.23h82.57c5.13,0,9.4,3.8,10.12,8.73h16.71l-16.6,16.47v14.38c0,5.64-4.59,10.23-10.23,10.23ZM309.86,11.86c-3.99,0-7.23,3.24-7.23,7.23v29.35c0,3.99,3.24,7.23,7.23,7.23h82.57c3.99,0,7.23-3.24,7.23-7.23v-15.62l12.32-12.22h-12.32v-1.5c0-3.99-3.24-7.23-7.23-7.23h-82.57ZM402.67,19.09h0,0Z"/>
        <g>
          <path class="cls-1" d="M412.17,140.58h-91.01c-.83,0-1.5-.67-1.5-1.5s.67-1.5,1.5-1.5h91.01c.83,0,1.5.67,1.5,1.5s-.67,1.5-1.5,1.5Z"/>
          <path class="cls-1" d="M315.17,140.58h-27.17c-.83,0-1.5-.67-1.5-1.5s.67-1.5,1.5-1.5h27.17c.83,0,1.5.67,1.5,1.5s-.67,1.5-1.5,1.5Z"/>
          <path class="cls-1" d="M356.31,154.9h-68.3c-.83,0-1.5-.67-1.5-1.5s.67-1.5,1.5-1.5h68.3c.83,0,1.5.67,1.5,1.5s-.67,1.5-1.5,1.5Z"/>
        </g>
        <g>
          <path class="cls-1" d="M350.09,84.34h-45.3c-.83,0-1.5-.67-1.5-1.5s.67-1.5,1.5-1.5h45.3c.83,0,1.5.67,1.5,1.5s-.67,1.5-1.5,1.5Z"/>
          <path class="cls-1" d="M299.21,84.34h-73.29c-.83,0-1.5-.67-1.5-1.5s.67-1.5,1.5-1.5h73.29c.83,0,1.5.67,1.5,1.5s-.67,1.5-1.5,1.5Z"/>
          <path class="cls-1" d="M266.36,98.66h-40.44c-.83,0-1.5-.67-1.5-1.5s.67-1.5,1.5-1.5h40.44c.83,0,1.5.67,1.5,1.5s-.67,1.5-1.5,1.5Z"/>
          <path class="cls-1" d="M288,98.66h-15.67c-.83,0-1.5-.67-1.5-1.5s.67-1.5,1.5-1.5h15.67c.83,0,1.5.67,1.5,1.5s-.67,1.5-1.5,1.5Z"/>
        </g>
        <g>
          <path class="cls-1" d="M334.98,33.71s.05.02.05.05-.02.05-.05.05-.05-.02-.05-.05.02-.05.05-.05M334.98,30.71c-1.68,0-3.05,1.37-3.05,3.05s1.37,3.05,3.05,3.05,3.05-1.37,3.05-3.05-1.37-3.05-3.05-3.05h0Z"/>
          <path class="cls-1" d="M350.09,33.71s.05.02.05.05-.02.05-.05.05-.05-.02-.05-.05.02-.05.05-.05M350.09,30.71c-1.68,0-3.05,1.37-3.05,3.05s1.37,3.05,3.05,3.05,3.05-1.37,3.05-3.05-1.37-3.05-3.05-3.05h0Z"/>
          <path class="cls-1" d="M365.19,33.71s.05.02.05.05-.02.05-.05.05-.05-.02-.05-.05.02-.05.05-.05M365.19,30.71c-1.68,0-3.05,1.37-3.05,3.05s1.37,3.05,3.05,3.05,3.05-1.37,3.05-3.05-1.37-3.05-3.05-3.05h0Z"/>
        </g>
      </g>
    </g>
  </g>
</svg>