<?xml version="1.0" encoding="UTF-8"?>
<svg id="Layer_2" data-name="Layer 2" xmlns="http://www.w3.org/2000/svg" viewBox="0 0 640 180">
  <defs>
    <style>
      .cls-1, .cls-2 {
        stroke-width: 0px;
      }

      .cls-3 {
        opacity: 0;
      }

      .cls-2 {
        fill: #fff;
      }
    </style>
  </defs>
  <g id="Layer_2-2" data-name="Layer 2">
    <g>
      <g class="cls-3">
        <rect class="cls-2" width="640" height="180"/>
      </g>
      <g>
        <g>
          <g>
            <path class="cls-1" d="M299.1,132.77h-29.11c-.83,0-1.5-.67-1.5-1.5s.67-1.5,1.5-1.5h29.11c.83,0,1.5.67,1.5,1.5s-.67,1.5-1.5,1.5Z"/>
            <path class="cls-1" d="M289.79,142.08c-.38,0-.77-.15-1.06-.44-.59-.59-.59-1.54,0-2.12l8.25-8.25-8.25-8.25c-.59-.59-.59-1.54,0-2.12s1.54-.59,2.12,0l10.37,10.37-10.37,10.37c-.29.29-.68.44-1.06.44Z"/>
          </g>
          <g>
            <path class="cls-1" d="M315.3,141.18c-.83,0-1.5-.67-1.5-1.5v-16.81c0-.83.67-1.5,1.5-1.5s1.5.67,1.5,1.5v16.81c0,.83-.67,1.5-1.5,1.5Z"/>
            <path class="cls-1" d="M329.86,145.61c-.83,0-1.5-.67-1.5-1.5v-25.68c0-.83.67-1.5,1.5-1.5s1.5.67,1.5,1.5v25.68c0,.83-.67,1.5-1.5,1.5Z"/>
            <path class="cls-1" d="M344.41,151.91c-.83,0-1.5-.67-1.5-1.5v-38.27c0-.83.67-1.5,1.5-1.5s1.5.67,1.5,1.5v38.27c0,.83-.67,1.5-1.5,1.5Z"/>
            <path class="cls-1" d="M358.97,159.24c-.83,0-1.5-.67-1.5-1.5v-52.93c0-.83.67-1.5,1.5-1.5s1.5.67,1.5,1.5v52.93c0,.83-.67,1.5-1.5,1.5Z"/>
            <path class="cls-1" d="M373.52,173.15c-.83,0-1.5-.67-1.5-1.5v-80.75c0-.83.67-1.5,1.5-1.5s1.5.67,1.5,1.5v80.75c0,.83-.67,1.5-1.5,1.5Z"/>
            <path class="cls-1" d="M431.75,141.18c-.83,0-1.5-.67-1.5-1.5v-16.81c0-.83.67-1.5,1.5-1.5s1.5.67,1.5,1.5v16.81c0,.83-.67,1.5-1.5,1.5Z"/>
            <path class="cls-1" d="M417.19,145.61c-.83,0-1.5-.67-1.5-1.5v-25.68c0-.83.67-1.5,1.5-1.5s1.5.67,1.5,1.5v25.68c0,.83-.67,1.5-1.5,1.5Z"/>
            <path class="cls-1" d="M402.63,151.91c-.83,0-1.5-.67-1.5-1.5v-38.27c0-.83.67-1.5,1.5-1.5s1.5.67,1.5,1.5v38.27c0,.83-.67,1.5-1.5,1.5Z"/>
            <path class="cls-1" d="M388.08,159.24c-.83,0-1.5-.67-1.5-1.5v-52.93c0-.83.67-1.5,1.5-1.5s1.5.67,1.5,1.5v52.93c0,.83-.67,1.5-1.5,1.5Z"/>
          </g>
        </g>
        <g>
          <path class="cls-1" d="M299.69,164.02h-72.05l-20.88-20.88V6.85h139.16v77.03c0,.83-.67,1.5-1.5,1.5s-1.5-.67-1.5-1.5V9.85h-133.16v132.05l19.12,19.12h70.81c.83,0,1.5.67,1.5,1.5s-.67,1.5-1.5,1.5Z"/>
          <g>
            <path class="cls-1" d="M322.17,32.25h-91.67c-.83,0-1.5-.67-1.5-1.5s.67-1.5,1.5-1.5h91.67c.83,0,1.5.67,1.5,1.5s-.67,1.5-1.5,1.5Z"/>
            <path class="cls-1" d="M322.17,49.96h-91.67c-.83,0-1.5-.67-1.5-1.5s.67-1.5,1.5-1.5h91.67c.83,0,1.5.67,1.5,1.5s-.67,1.5-1.5,1.5Z"/>
            <path class="cls-1" d="M322.17,67.67h-91.67c-.83,0-1.5-.67-1.5-1.5s.67-1.5,1.5-1.5h91.67c.83,0,1.5.67,1.5,1.5s-.67,1.5-1.5,1.5Z"/>
            <path class="cls-1" d="M281.49,85.38h-50.99c-.83,0-1.5-.67-1.5-1.5s.67-1.5,1.5-1.5h50.99c.83,0,1.5.67,1.5,1.5s-.67,1.5-1.5,1.5Z"/>
          </g>
        </g>
      </g>
    </g>
  </g>
</svg>