<?xml version="1.0" encoding="UTF-8"?><svg id="Layer_2" xmlns="http://www.w3.org/2000/svg" viewBox="0 0 320 180"><defs><style>.cls-1{fill:#fff;}</style></defs><g id="Layer_1-2"><rect class="cls-1" width="320" height="180"/><path d="m136.2,79.81c-.38,0-.77-.15-1.06-.44l-28.28-28.28-14.3-2.4c-.48-.08-.89-.39-1.1-.83l-13.91-29.04c-.28-.57-.16-1.26.29-1.71l9.28-9.28c.45-.45,1.14-.57,1.71-.29l29.04,13.91c.44.21.75.62.83,1.1l2.4,14.3,28.28,28.28c.59.59.59,1.54,0,2.12l-12.12,12.12c-.29.29-.68.44-1.06.44Zm-42.38-33.95l14.01,2.35c.31.05.59.2.81.42l27.56,27.56,10-10-27.56-27.56c-.22-.22-.37-.5-.42-.81l-2.35-14.01-27.38-13.11-7.78,7.78,13.11,27.38Z"/><path d="m217.29,172.05c-3.18,0-6.37-1.21-8.79-3.63l-53.13-53.13c-.33-.33-.49-.79-.43-1.25.68-5.28-1.08-10.46-4.84-14.21s-8.93-5.52-14.21-4.84c-.46.06-.92-.1-1.25-.43l-7.34-7.34c-.59-.59-.59-1.54,0-2.12l27.79-27.79c.59-.59,1.54-.59,2.12,0l7.34,7.34c.33.33.49.79.43,1.25-.68,5.28,1.08,10.46,4.84,14.21h0c3.75,3.75,8.93,5.52,14.21,4.84.46-.06.92.1,1.25.43l53.13,53.13c4.85,4.85,4.85,12.73,0,17.58l-12.33,12.33c-2.42,2.42-5.61,3.63-8.79,3.63Zm-59.29-58.38l52.63,52.63c3.68,3.68,9.66,3.68,13.34,0l12.33-12.33c3.68-3.68,3.68-9.66,0-13.34l-52.63-52.63c-5.95.55-11.73-1.53-15.97-5.77h0c-4.24-4.24-6.32-10.02-5.77-15.97l-5.77-5.77-25.67,25.67,5.77,5.77c5.94-.55,11.73,1.53,15.97,5.77s6.32,10.02,5.77,15.97Z"/><path d="m225.17,156.67c-.38,0-.77-.15-1.06-.44l-43.83-43.83c-.59-.59-.59-1.54,0-2.12s1.54-.59,2.12,0l43.83,43.83c.59.59.59,1.54,0,2.12-.29.29-.68.44-1.06.44Z"/><path d="m109.38,152.43c-3.05,0-5.91-1.19-8.07-3.34-4.45-4.45-4.45-11.69,0-16.14,4.45-4.45,11.69-4.45,16.14,0,2.16,2.16,3.34,5.02,3.34,8.07s-1.19,5.91-3.34,8.07h0c-2.16,2.16-5.02,3.34-8.07,3.34Zm0-19.82c-2.15,0-4.31.82-5.95,2.46-3.28,3.28-3.28,8.62,0,11.9,1.59,1.59,3.7,2.46,5.95,2.46s4.36-.88,5.95-2.46h0c1.59-1.59,2.46-3.7,2.46-5.95s-.88-4.36-2.46-5.95-3.79-2.46-5.95-2.46Z"/><path d="m190.11,83.61c-.38,0-.77-.15-1.06-.44-.59-.59-.59-1.54,0-2.12l13.56-13.56c.37-.37.92-.52,1.43-.39,9.71,2.44,20.13-.44,27.2-7.51,8.08-8.08,10.52-20.17,6.39-30.68l-15.41,15.41c-.29.29-.67.46-1.1.44l-13.63-.39c-.79-.02-1.43-.66-1.46-1.46l-.39-13.63c-.01-.41.15-.81.44-1.1l15.41-15.41c-10.51-4.13-22.6-1.69-30.68,6.39-7.07,7.07-9.94,17.49-7.5,27.2.13.51-.02,1.05-.39,1.43l-13.56,13.56c-.59.59-1.54.59-2.12,0s-.59-1.54,0-2.12l12.97-12.97c-2.33-10.49.88-21.61,8.49-29.22,9.49-9.49,23.98-11.95,36.07-6.11.44.21.75.62.83,1.1.08.48-.07.97-.42,1.31l-16.5,16.5.33,11.56,11.57.33,16.5-16.5c.34-.34.83-.5,1.31-.42.48.08.89.39,1.1.83,5.83,12.08,3.38,26.58-6.11,36.07-7.61,7.61-18.73,10.82-29.22,8.49l-12.97,12.97c-.29.29-.68.44-1.06.44Z"/><path d="m163.35,110.36c-.38,0-.77-.15-1.06-.44-.59-.59-.59-1.54,0-2.12l15.51-15.51c.59-.59,1.54-.59,2.12,0s.59,1.54,0,2.12l-15.51,15.51c-.29.29-.68.44-1.06.44Z"/><path d="m109.38,172.59c-8.09,0-16.18-3.08-22.33-9.24s-9.25-13.9-9.25-22.33,3.29-16.37,9.25-22.33c7.61-7.61,18.73-10.82,29.22-8.49l12.96-12.96c.59-.59,1.54-.59,2.12,0s.59,1.54,0,2.12l-13.55,13.55c-.37.37-.91.52-1.43.39-9.71-2.44-20.13.44-27.2,7.51-5.4,5.4-8.37,12.58-8.37,20.21s2.97,14.81,8.37,20.21c11.14,11.14,29.28,11.15,40.43,0,7.07-7.07,9.94-17.49,7.5-27.2-.13-.51.02-1.05.39-1.43l13.55-13.55c.59-.59,1.54-.59,2.12,0s.59,1.54,0,2.12l-12.96,12.96c2.33,10.49-.88,21.61-8.49,29.22-6.16,6.16-14.25,9.24-22.33,9.24Z"/><path d="m141.53,88.54c-.38,0-.77-.15-1.06-.44-.59-.59-.59-1.54,0-2.12l15.51-15.51c.59-.59,1.54-.59,2.12,0s.59,1.54,0,2.12l-15.51,15.51c-.29.29-.68.44-1.06.44Z"/></g></svg>