<?xml version="1.0" encoding="UTF-8"?>
<svg id="Layer_2" data-name="Layer 2" xmlns="http://www.w3.org/2000/svg" viewBox="0 0 640 180">
  <defs>
    <style>
      .cls-1 {
        fill: none;
        stroke: #000;
        stroke-linecap: round;
        stroke-miterlimit: 10;
        stroke-width: 3px;
      }

      .cls-2 {
        fill: #fff;
        opacity: 0;
        stroke-width: 0px;
      }
    </style>
  </defs>
  <g id="Layer_2-2" data-name="Layer 2">
    <g>
      <rect class="cls-2" width="640" height="180"/>
      <g>
        <g>
          <line class="cls-1" x1="298.97" y1="95.14" x2="324.27" y2="95.14"/>
          <polyline class="cls-1" points="314.96 85.84 324.27 95.14 314.96 104.45"/>
        </g>
        <g>
          <polyline class="cls-1" points="196.5 116.94 168.7 116.94 168.7 68.01 196.5 68.01"/>
          <polygon class="cls-1" points="206.5 116.94 271.09 166.74 271.09 18.22 206.5 68.01 206.5 116.94"/>
        </g>
        <g>
          <path class="cls-1" d="M438.3,167.35h-85.9V12.65h118.9v121.7l-33,33Z"/>
          <polyline class="cls-1" points="436.86 167.35 436.86 132.91 457.2 132.91"/>
          <line class="cls-1" x1="380.46" y1="41.03" x2="443.23" y2="41.03"/>
          <line class="cls-1" x1="380.46" y1="63.43" x2="443.23" y2="63.43"/>
          <line class="cls-1" x1="380.46" y1="85.84" x2="443.23" y2="85.84"/>
          <line class="cls-1" x1="380.46" y1="108.24" x2="403.99" y2="108.24"/>
        </g>
      </g>
    </g>
  </g>
</svg>