<?xml version="1.0" encoding="UTF-8"?><svg id="Layer_2" xmlns="http://www.w3.org/2000/svg" viewBox="0 0 640 180"><defs><style>.cls-1{fill:#fff;opacity:0;}</style></defs><g id="Layer_1-2"><rect class="cls-1" width="640" height="180"/><path d="m320,8.55c16.25,0,29.46,13.22,29.46,29.46s-13.22,29.46-29.46,29.46-29.46-13.22-29.46-29.46,13.22-29.46,29.46-29.46m0-3c-17.93,0-32.46,14.53-32.46,32.46s14.53,32.46,32.46,32.46,32.46-14.53,32.46-32.46-14.53-32.46-32.46-32.46h0Z"/><path d="m253.24,128.58h-3c0-12.67,5.5-24.35,15.89-33.8l2.02,2.22c-9.75,8.86-14.91,19.78-14.91,31.58Z"/><path d="m267.14,145.44c-9.34,0-16.9-7.56-16.9-16.86h3c0,7.64,6.22,13.86,13.86,13.86l.04,3h0Z"/><rect x="318.5" y="107.48" width="3" height="65.47"/><polygon points="372.9 145.44 372.78 145.44 372.86 142.44 372.98 142.44 372.9 145.44"/><polygon points="372.9 114.73 372.86 111.73 372.86 113.23 372.78 111.73 372.9 111.73 372.9 114.73"/><path d="m320,174.45c-.1,0-.2,0-.3-.03l-52.86-10.68c-.7-.14-1.2-.76-1.2-1.47v-11.58c0-.83.67-1.5,1.5-1.5s1.5.67,1.5,1.5v10.36l51.36,10.37,51.36-10.37v-10.36c0-.83.67-1.5,1.5-1.5s1.5.67,1.5,1.5v11.58c0,.71-.5,1.33-1.2,1.47l-52.86,10.68c-.1.02-.2.03-.3.03Z"/><path d="m372.86,145.44c-9.27-.03-16.81-7.59-16.81-16.86,0-8.76,6.74-16,15.32-16.79v-18.86l-51.06,10.31c-.2.04-.4.04-.59,0l-51.06-10.31v18.86c8.57.78,15.32,8.02,15.32,16.79,0,9.27-7.54,16.83-16.81,16.86v-3c7.61-.02,13.81-6.24,13.81-13.86s-6.2-13.83-13.82-13.86c-.83,0-1.5-.67-1.5-1.5v-22.13c0-.45.2-.88.55-1.16.35-.29.81-.4,1.25-.31l52.56,10.61,52.56-10.61c.44-.09.9.02,1.25.31.35.29.55.71.55,1.16v22.13c0,.83-.67,1.5-1.5,1.5-7.62.02-13.82,6.24-13.82,13.86s6.2,13.83,13.82,13.86v3Z"/><path d="m389.76,128.58h-3c0-11.8-5.16-22.72-14.91-31.58l2.02-2.22c10.4,9.44,15.89,21.13,15.89,33.8Z"/><path d="m372.9,145.44v-3c7.64,0,13.86-6.22,13.86-13.86h3c0,9.3-7.56,16.86-16.86,16.86Z"/><path d="m320,78.75c-.1,0-.2-.01-.3-.03-.09,0-.18-.04-.28-.08-.09-.04-.17-.09-.25-.14-.09-.05-.16-.12-.23-.19-.28-.27-.44-.66-.44-1.06s.16-.78.44-1.06c.07-.07.14-.13.23-.18.08-.06.16-.1.25-.14.1-.04.19-.07.28-.09.49-.1,1.01.07,1.36.41.28.28.44.67.44,1.06,0,.1-.01.2-.03.3-.02.09-.05.19-.09.28-.03.09-.08.18-.14.26-.05.08-.11.16-.18.22-.28.28-.67.44-1.06.44Z"/><path d="m278.67,89.15c-.52,0-1.03-.27-1.31-.76-.41-.72-.15-1.64.57-2.04,12.09-6.83,27.03-10.59,42.07-10.59s29.97,3.76,42.07,10.59c.72.41.98,1.32.57,2.04-.41.72-1.32.98-2.04.57-11.65-6.58-26.07-10.2-40.59-10.2s-28.94,3.62-40.59,10.2c-.23.13-.49.19-.74.19Z"/></g></svg>