<?xml version="1.0" encoding="UTF-8"?>
<svg id="Layer_2" data-name="Layer 2" xmlns="http://www.w3.org/2000/svg" viewBox="0 0 640 180">
  <defs>
    <style>
      .cls-1 {
        fill: none;
        stroke: #000;
        stroke-linecap: round;
        stroke-miterlimit: 10;
        stroke-width: 3px;
      }

      .cls-2 {
        fill: #fff;
        opacity: 0;
        stroke-width: 0px;
      }
    </style>
  </defs>
  <g id="Layer_2-2" data-name="Layer 2">
    <g>
      <rect class="cls-2" width="640" height="180"/>
      <g>
        <g>
          <g>
            <line class="cls-1" x1="321.14" y1="80.71" x2="354.67" y2="80.71"/>
            <polyline class="cls-1" points="345.36 71.4 354.67 80.71 345.36 90.02"/>
          </g>
          <g>
            <line class="cls-1" x1="347.65" y1="103.5" x2="314.13" y2="103.5"/>
            <polyline class="cls-1" points="323.43 112.81 314.13 103.5 323.43 94.19"/>
          </g>
        </g>
        <g>
          <rect class="cls-1" x="363.91" y="68.01" width="27.79" height="48.93"/>
          <polygon class="cls-1" points="391.71 116.94 456.3 166.74 456.3 18.22 391.71 68.01 391.71 116.94"/>
        </g>
        <g>
          <path class="cls-1" d="M270.24,167.35h-85.9V12.65h118.9v121.7l-33,33Z"/>
          <polyline class="cls-1" points="268.8 167.35 268.8 132.91 303.24 132.91"/>
          <line class="cls-1" x1="212.41" y1="41.03" x2="275.18" y2="41.03"/>
          <line class="cls-1" x1="212.41" y1="63.43" x2="275.18" y2="63.43"/>
          <line class="cls-1" x1="212.41" y1="85.84" x2="275.18" y2="85.84"/>
          <line class="cls-1" x1="212.41" y1="108.24" x2="235.93" y2="108.24"/>
        </g>
      </g>
    </g>
  </g>
</svg>