<?xml version="1.0" encoding="UTF-8"?>
<svg id="Layer_2" data-name="Layer 2" xmlns="http://www.w3.org/2000/svg" viewBox="0 0 640 180">
  <defs>
    <style>
      .cls-1 {
        fill: none;
        stroke: #000;
        stroke-linecap: round;
        stroke-miterlimit: 10;
        stroke-width: 3px;
      }

      .cls-2, .cls-3 {
        stroke-width: 0px;
      }

      .cls-3 {
        fill: #fff;
        opacity: 0;
      }
    </style>
  </defs>
  <g id="Layer_2-2" data-name="Layer 2">
    <g>
      <rect class="cls-3" width="640" height="180"/>
      <g>
        <path class="cls-2" d="M320,173.12l-.59-.25c-43.92-18.8-61.44-58.04-68.4-87.64-7.51-31.96-4.66-59.89-4.63-60.17l.13-1.24,1.25-.09c.49-.04,49.58-3.82,71.48-16.5l.75-.44.75.44c21.91,12.68,70.99,16.47,71.48,16.5l1.25.09.13,1.24c.03.28,2.89,28.21-4.63,60.17-6.96,29.61-24.48,68.84-68.4,87.64l-.59.25ZM249.26,26.6c-.45,5.69-1.84,30.32,4.69,58.02,6.78,28.77,23.74,66.84,66.05,85.23,42.3-18.39,59.27-56.47,66.05-85.23,6.53-27.7,5.14-52.32,4.69-58.02-7.99-.67-49.72-4.68-70.74-16.37-9.51,5.29-24.39,9.66-44.24,12.98-12.33,2.07-22.94,3.08-26.5,3.39Z"/>
        <path class="cls-2" d="M320,173.12l-.59-.25c-43.92-18.8-61.44-58.04-68.4-87.64-7.51-31.96-4.66-59.89-4.63-60.17l.13-1.24,1.25-.09c.49-.04,49.58-3.82,71.48-16.5l.75-.44.75.44c21.91,12.68,70.99,16.47,71.48,16.5l1.25.09.13,1.24c.03.28,2.89,28.21-4.63,60.17-6.96,29.61-24.48,68.84-68.4,87.64l-.59.25ZM249.26,26.6c-.45,5.69-1.84,30.32,4.69,58.02,6.78,28.77,23.74,66.84,66.05,85.23,42.3-18.39,59.27-56.47,66.05-85.23,6.53-27.7,5.14-52.32,4.69-58.02-7.99-.67-49.72-4.68-70.74-16.37-9.51,5.29-24.39,9.66-44.24,12.98-12.33,2.07-22.94,3.08-26.5,3.39Z"/>
        <path class="cls-2" d="M282.55,121.75c-.5,0-.99-.25-1.28-.71-6.76-10.95-11.97-23.88-15.47-38.43-4.15-17.25-5-33.33-4.98-43.77v-1.33s1.32-.16,1.32-.16c13.62-1.65,39.16-5.59,57.26-13.47l.6-.26.6.26c18.1,7.88,43.64,11.82,57.26,13.47.82.1,1.41.85,1.31,1.67-.1.82-.85,1.4-1.67,1.31-16.64-2.02-40.03-5.98-57.5-13.44-17.01,7.26-39.64,11.21-56.17,13.28.06,10.29.99,25.49,4.9,41.74,3.43,14.24,8.51,26.88,15.1,37.56.44.71.22,1.63-.49,2.06-.25.15-.52.22-.79.22Z"/>
        <path class="cls-2" d="M320,156.63l-.68-.34c-13.46-6.84-24.81-16.53-33.73-28.81-.49-.67-.34-1.61.33-2.1.67-.49,1.61-.34,2.1.33,8.49,11.68,19.24,20.95,31.98,27.55,25.86-13.39,43.11-37.4,51.28-71.36,1.93-8.01,3.31-16.53,4.11-25.32.08-.83.82-1.43,1.63-1.36.83.08,1.43.8,1.36,1.63-.81,8.93-2.22,17.59-4.18,25.75-8.45,35.15-26.46,59.94-53.51,73.68l-.68.34Z"/>
        <path class="cls-2" d="M320,56.79c6.53,0,12.55.2,16.47.44,5.55.34,10.07,4.56,10.86,10.06.44,3.07.79,6.66.79,10.38s-.35,7.32-.79,10.38c-.79,5.5-5.32,9.71-10.86,10.06-3.92.24-9.94.44-16.47.44-5.44,0-10.78-.14-14.41-.33l-9.28,4.36c-.69-1.67-1.28-3.49-1.77-5.33,0,0,0,0,0,0,0,0-2.66-9.28-2.66-19.59,0-3.73.35-7.32.79-10.38.79-5.5,5.32-9.71,10.86-10.06,3.92-.24,9.94-.44,16.47-.44M320,53.79c-5.89,0-12.12.17-16.66.45-6.91.43-12.65,5.74-13.65,12.62-.54,3.77-.82,7.41-.82,10.81,0,10.62,2.66,20.02,2.77,20.42l.14.49c.07.25.14.5.21.74l.2.71h.01c.41,1.34.86,2.58,1.32,3.71l1.2,2.91,2.85-1.34,8.61-4.04c3.92.18,9.02.29,13.81.29,5.9,0,12.13-.17,16.66-.45,6.91-.43,12.65-5.74,13.65-12.62.54-3.77.82-7.41.82-10.81s-.28-7.04-.82-10.81c-.99-6.89-6.73-12.2-13.65-12.62-4.54-.28-10.77-.45-16.66-.45h0Z"/>
        <g>
          <path class="cls-2" d="M307.65,79.66s.04.02.04.04-.02.04-.04.04-.04-.02-.04-.04.02-.04.04-.04M307.65,76.66c-1.68,0-3.04,1.36-3.04,3.04s1.36,3.04,3.04,3.04,3.04-1.36,3.04-3.04-1.36-3.04-3.04-3.04h0Z"/>
          <path class="cls-2" d="M320,79.66s.04.02.04.04-.02.04-.04.04-.04-.02-.04-.04.02-.04.04-.04M320,76.66c-1.68,0-3.04,1.36-3.04,3.04s1.36,3.04,3.04,3.04,3.04-1.36,3.04-3.04-1.36-3.04-3.04-3.04h0Z"/>
          <path class="cls-2" d="M332.35,79.66s.04.02.04.04-.02.04-.04.04-.04-.02-.04-.04.02-.04.04-.04M332.35,76.66c-1.68,0-3.04,1.36-3.04,3.04s1.36,3.04,3.04,3.04,3.04-1.36,3.04-3.04-1.36-3.04-3.04-3.04h0Z"/>
        </g>
      </g>
      <g>
        <line class="cls-1" x1="445.7" y1="88.33" x2="450.87" y2="81.95"/>
        <line class="cls-1" x1="438.62" y1="75.26" x2="446.79" y2="74.41"/>
        <line class="cls-1" x1="442.85" y1="61.01" x2="449.23" y2="66.19"/>
        <line class="cls-1" x1="455.91" y1="53.93" x2="456.76" y2="62.1"/>
        <line class="cls-1" x1="470.16" y1="58.16" x2="464.99" y2="64.54"/>
        <line class="cls-1" x1="477.24" y1="71.22" x2="469.08" y2="72.08"/>
        <line class="cls-1" x1="473.02" y1="85.47" x2="466.63" y2="80.3"/>
        <line class="cls-1" x1="459.95" y1="92.55" x2="459.1" y2="84.39"/>
      </g>
      <g>
        <line class="cls-1" x1="186.02" y1="150.89" x2="189.44" y2="146.67"/>
        <line class="cls-1" x1="182.11" y1="136.31" x2="187.18" y2="138.26"/>
        <line class="cls-1" x1="194.78" y1="128.09" x2="194.49" y2="133.52"/>
        <line class="cls-1" x1="206.51" y1="137.6" x2="201.26" y2="139"/>
        <line class="cls-1" x1="201.09" y1="151.69" x2="198.13" y2="147.13"/>
      </g>
    </g>
  </g>
</svg>