<?xml version="1.0" encoding="UTF-8"?>
<svg id="Layer_2" data-name="Layer 2" xmlns="http://www.w3.org/2000/svg" viewBox="0 0 196.32 162.84">
  <defs>
    <style>
      .cls-1 {
        fill: none;
        stroke: #000;
        stroke-linecap: round;
        stroke-miterlimit: 10;
        stroke-width: 3px;
      }
    </style>
  </defs>
  <g id="Layer_2-2" data-name="Layer 2">
    <g>
      <path class="cls-1" d="M16.38,66.75l-13.23,7.17,13.23,7.17v15c0,4.82,3.91,8.73,8.73,8.73h112.57c4.82,0,8.73-3.91,8.73-8.73v-29.35c0-4.82-3.91-8.73-8.73-8.73H25.11c-4.82,0-8.73,3.91-8.73,8.73h0Z"/>
      <path class="cls-1" d="M179.94,123.26l13.23,7.17-13.23,7.17v15c0,4.82-3.91,8.73-8.73,8.73H58.64c-4.82,0-8.73-3.91-8.73-8.73v-29.35c0-4.82,3.91-8.73,8.73-8.73h112.57c4.82,0,8.73,3.91,8.73,8.73h0Z"/>
      <path class="cls-1" d="M179.94,10.23l13.23,7.17-13.23,7.17v15c0,4.82-3.91,8.73-8.73,8.73h-72.89c-4.82,0-8.73-3.91-8.73-8.73V10.23c0-4.82,3.91-8.73,8.73-8.73h72.89c4.82,0,8.73,3.91,8.73,8.73h0Z"/>
    </g>
  </g>
</svg>