<?xml version="1.0" encoding="UTF-8"?><svg id="Layer_2" xmlns="http://www.w3.org/2000/svg" viewBox="0 0 320 180"><defs><style>.cls-1{fill:#fff;}</style></defs><g id="Layer_1-2"><rect class="cls-1" width="320" height="180"/><path d="m177.14,160.94h-34.28c-6.21,0-11.27-5.05-11.27-11.27v-17.47c0-7.11-2.84-13.9-7.79-18.65-10.78-10.32-16.65-24.8-16.11-39.73,1-27.61,23.42-49.74,51.04-50.39,14.23-.33,27.67,4.95,37.83,14.88,10.17,9.93,15.77,23.23,15.77,37.45s-5.63,27.58-15.86,37.52c-5.21,5.06-8.08,11.74-8.08,18.8v17.59c0,6.21-5.05,11.27-11.27,11.27Zm-17.13-134.52c-.4,0-.8,0-1.2.01-26.04.61-47.18,21.48-48.12,47.5-.51,14.08,5.03,27.73,15.19,37.46,5.54,5.3,8.72,12.89,8.72,20.81v17.47c0,4.56,3.71,8.27,8.27,8.27h34.28c4.56,0,8.27-3.71,8.27-8.27v-17.59c0-7.88,3.19-15.32,8.99-20.96,9.64-9.37,14.95-21.93,14.95-35.37s-5.28-25.94-14.87-35.3c-9.3-9.08-21.5-14.04-34.46-14.04Z"/><path d="m167.37,175.77h-14.73c-7.63,0-13.83-6.21-13.83-13.83v-3.19h3v3.19c0,5.97,4.86,10.83,10.83,10.83h14.73c5.97,0,10.83-4.86,10.83-10.83v-3.19h3v3.19c0,7.63-6.21,13.83-13.83,13.83Z"/><rect x="133.1" y="130.46" width="53.81" height="3"/><path d="m177.75,146.85h-44.65c-.83,0-1.5-.67-1.5-1.5s.67-1.5,1.5-1.5h44.65c.83,0,1.5.67,1.5,1.5s-.67,1.5-1.5,1.5Z"/><path d="m160,123.52c-.83,0-1.5-.67-1.5-1.5v-46.12c0-.83.67-1.5,1.5-1.5s1.5.67,1.5,1.5v46.12c0,.83-.67,1.5-1.5,1.5Z"/><path d="m160,88.94c-7.19,0-13.04-5.85-13.04-13.04s5.85-13.04,13.04-13.04,13.04,5.85,13.04,13.04c0,3.42-1.32,6.66-3.71,9.11-.58.59-1.53.61-2.12.03-.59-.58-.6-1.53-.03-2.12,1.84-1.89,2.86-4.38,2.86-7.01,0-5.54-4.5-10.04-10.04-10.04s-10.04,4.5-10.04,10.04,4.5,10.04,10.04,10.04c.83,0,1.5.67,1.5,1.5s-.67,1.5-1.5,1.5Z"/><path d="m230.17,77.4h-5.18c-.83,0-1.5-.67-1.5-1.5s.67-1.5,1.5-1.5h5.18c.83,0,1.5.67,1.5,1.5s-.67,1.5-1.5,1.5Z"/><path d="m95.02,77.4h-5.18c-.83,0-1.5-.67-1.5-1.5s.67-1.5,1.5-1.5h5.18c.83,0,1.5.67,1.5,1.5s-.67,1.5-1.5,1.5Z"/><path d="m160,12.41c-.83,0-1.5-.67-1.5-1.5v-5.18c0-.83.67-1.5,1.5-1.5s1.5.67,1.5,1.5v5.18c0,.83-.67,1.5-1.5,1.5Z"/><path d="m103.35,134.05c-.38,0-.77-.15-1.06-.44-.59-.59-.59-1.54,0-2.12l10.7-10.7c.59-.59,1.54-.59,2.12,0s.59,1.54,0,2.12l-10.7,10.7c-.29.29-.68.44-1.06.44Z"/><path d="m205.95,31.45c-.38,0-.77-.15-1.06-.44-.59-.59-.59-1.54,0-2.12l10.7-10.7c.59-.59,1.54-.59,2.12,0s.59,1.54,0,2.12l-10.7,10.7c-.29.29-.68.44-1.06.44Z"/><path d="m114.05,31.45c-.38,0-.77-.15-1.06-.44l-10.7-10.7c-.59-.59-.59-1.54,0-2.12s1.54-.59,2.12,0l10.7,10.7c.59.59.59,1.54,0,2.12-.29.29-.68.44-1.06.44Z"/><path d="m216.65,134.05c-.38,0-.77-.15-1.06-.44l-10.7-10.7c-.59-.59-.59-1.54,0-2.12s1.54-.59,2.12,0l10.7,10.7c.59.59.59,1.54,0,2.12-.29.29-.68.44-1.06.44Z"/></g></svg>