<?xml version="1.0" encoding="UTF-8"?><svg id="Layer_2" xmlns="http://www.w3.org/2000/svg" viewBox="0 0 640 180"><defs><style>.cls-1{fill:#fff;opacity:0;}</style></defs><g id="Layer_1-2"><rect class="cls-1" width="640" height="180"/><path d="m301.78,160.8h-61.74c-.83,0-1.5-.67-1.5-1.5s.67-1.5,1.5-1.5h61.74c.83,0,1.5.67,1.5,1.5s-.67,1.5-1.5,1.5Z"/><path d="m326.82,160.41c-.76,0-1.41-.57-1.49-1.34-.09-.82.51-1.56,1.33-1.65,34.53-3.66,60.57-32.64,60.57-67.42,0-37.38-30.41-67.8-67.8-67.8-.83,0-1.5-.67-1.5-1.5s.67-1.5,1.5-1.5c39.04,0,70.8,31.76,70.8,70.8,0,36.31-27.19,66.58-63.25,70.4-.05,0-.11,0-.16,0Z"/><path d="m276.99,146.28c-.32,0-.65-.1-.92-.32-17.43-13.53-27.43-33.92-27.43-55.96,0-26.92,14.95-51.17,39.02-63.28.74-.37,1.64-.07,2.01.67.37.74.07,1.64-.67,2.01-23.05,11.6-37.37,34.82-37.37,60.6,0,21.1,9.57,40.64,26.27,53.59.65.51.77,1.45.26,2.1-.29.38-.74.58-1.19.58Z"/><path d="m399.34,160.8h-36.84c-.83,0-1.5-.67-1.5-1.5s.67-1.5,1.5-1.5h36.84c.83,0,1.5.67,1.5,1.5s-.67,1.5-1.5,1.5Z"/><path d="m386.81,173.33c-.38,0-.77-.15-1.06-.44-.59-.59-.59-1.54,0-2.12l11.47-11.47-11.47-11.47c-.59-.59-.59-1.54,0-2.12s1.54-.59,2.12,0l13.59,13.59-13.59,13.59c-.29.29-.68.44-1.06.44Z"/><path d="m329.07,34.73c-.38,0-.77-.15-1.06-.44l-13.59-13.59,13.59-13.59c.59-.59,1.54-.59,2.12,0s.59,1.54,0,2.12l-11.47,11.47,11.47,11.47c.59.59.59,1.54,0,2.12-.29.29-.68.44-1.06.44Z"/><path d="m318.95,60.42c7.98,0,15.35.25,20.14.54,6.78.42,12.31,5.57,13.28,12.3.54,3.75.96,8.14.96,12.7s-.42,8.95-.96,12.7c-.97,6.73-6.5,11.88-13.28,12.3-4.79.3-12.16.54-20.14.54-6.66,0-13.19-.17-17.62-.4l-11.35,5.33c-.85-2.05-1.56-4.27-2.16-6.51,0,0,0,0,0,0,0,0-3.25-11.34-3.25-23.96,0-4.56.42-8.95.96-12.7.97-6.73,6.5-11.88,13.28-12.3,4.79-.3,12.16-.54,20.14-.54m0-3c-7.19,0-14.79.21-20.33.55-8.14.51-14.9,6.76-16.07,14.86-.66,4.58-1,8.99-1,13.12,0,12.89,3.23,24.3,3.36,24.78l.17.6c.09.3.17.61.26.9l.09.3h0c.55,1.83,1.14,3.52,1.76,5.03l1.2,2.91,2.85-1.34,10.67-5.01c4.81.23,11.1.37,17.02.37,7.19,0,14.79-.21,20.33-.55,8.14-.51,14.9-6.76,16.07-14.86.66-4.58,1-8.99,1-13.13s-.33-8.55-1-13.12c-1.17-8.11-7.93-14.36-16.07-14.86-5.53-.34-13.13-.55-20.33-.55h0Z"/><path d="m303.92,85.58s.05.02.05.05-.02.05-.05.05-.05-.02-.05-.05.02-.05.05-.05m0-3c-1.68,0-3.05,1.37-3.05,3.05s1.37,3.05,3.05,3.05,3.05-1.37,3.05-3.05-1.37-3.05-3.05-3.05h0Z"/><path d="m319.02,85.58s.05.02.05.05-.02.05-.05.05-.05-.02-.05-.05.02-.05.05-.05m0-3c-1.68,0-3.05,1.37-3.05,3.05s1.37,3.05,3.05,3.05,3.05-1.37,3.05-3.05-1.37-3.05-3.05-3.05h0Z"/><path d="m334.13,85.58s.05.02.05.05-.02.05-.05.05-.05-.02-.05-.05.02-.05.05-.05m0-3c-1.68,0-3.05,1.37-3.05,3.05s1.37,3.05,3.05,3.05,3.05-1.37,3.05-3.05-1.37-3.05-3.05-3.05h0Z"/><path d="m296.46,34.73c-5.46,0-9.91-4.44-9.91-9.91s4.44-9.91,9.91-9.91,9.91,4.44,9.91,9.91-4.44,9.91-9.91,9.91Zm0-16.81c-3.81,0-6.91,3.1-6.91,6.91s3.1,6.91,6.91,6.91,6.91-3.1,6.91-6.91-3.1-6.91-6.91-6.91Z"/><path d="m328.33,168.19h-17.78v-17.78h17.78v17.78Zm-14.78-3h11.78v-11.78h-11.78v11.78Z"/></g></svg>