<?xml version="1.0" encoding="UTF-8"?>
<svg id="Layer_2" data-name="Layer 2" xmlns="http://www.w3.org/2000/svg" viewBox="0 0 640 180">
  <defs>
    <style>
      .cls-1 {
        fill: none;
        stroke: #000;
        stroke-linecap: round;
        stroke-miterlimit: 10;
        stroke-width: 3px;
      }

      .cls-2, .cls-3 {
        stroke-width: 0px;
      }

      .cls-3 {
        fill: #fff;
        opacity: 0;
      }
    </style>
  </defs>
  <g id="Layer_2-2" data-name="Layer 2">
    <g>
      <rect class="cls-3" width="640" height="180"/>
      <g>
        <path class="cls-1" d="M320,8.51c-22.46,13.01-72.12,16.7-72.12,16.7,0,0-11.79,110.36,72.12,146.28"/>
        <path class="cls-1" d="M320,8.51c22.46,13.01,72.12,16.7,72.12,16.7,0,0,11.79,110.36-72.12,146.28"/>
        <path class="cls-2" d="M320,51.69c7.98,0,15.35.25,20.14.54,6.78.42,12.31,5.57,13.28,12.3.54,3.75.96,8.14.96,12.7s-.42,8.95-.96,12.7c-.97,6.73-6.5,11.88-13.28,12.3-4.79.3-12.16.54-20.14.54-6.66,0-13.19-.17-17.62-.4l-11.35,5.33c-.85-2.05-1.56-4.27-2.16-6.51,0,0,0,0,0,0,0,0-3.25-11.34-3.25-23.96,0-4.56.42-8.95.96-12.7.97-6.73,6.5-11.88,13.28-12.3,4.79-.3,12.16-.54,20.14-.54M320,48.69c-7.19,0-14.79.21-20.33.55-8.14.51-14.9,6.76-16.07,14.86-.66,4.58-1,8.99-1,13.12,0,12.89,3.23,24.3,3.36,24.78l.17.6c.09.3.17.61.26.9l.08.29h0c.55,1.84,1.14,3.53,1.77,5.04l1.2,2.91,2.85-1.34,10.67-5.01c4.81.23,11.1.37,17.02.37,7.19,0,14.79-.21,20.33-.55,8.14-.51,14.9-6.76,16.07-14.86.66-4.58,1-8.99,1-13.12s-.33-8.55-1-13.12c-1.17-8.11-7.93-14.36-16.07-14.86-5.54-.34-13.13-.55-20.33-.55h0Z"/>
        <g>
          <path class="cls-2" d="M304.89,79.65s.05.02.05.05-.02.05-.05.05-.05-.02-.05-.05.02-.05.05-.05M304.89,76.65c-1.68,0-3.05,1.37-3.05,3.05s1.37,3.05,3.05,3.05,3.05-1.37,3.05-3.05-1.37-3.05-3.05-3.05h0Z"/>
          <path class="cls-2" d="M320,79.65s.05.02.05.05-.02.05-.05.05-.05-.02-.05-.05.02-.05.05-.05M320,76.65c-1.68,0-3.05,1.37-3.05,3.05s1.37,3.05,3.05,3.05,3.05-1.37,3.05-3.05-1.37-3.05-3.05-3.05h0Z"/>
          <path class="cls-2" d="M335.11,79.65s.05.02.05.05-.02.05-.05.05-.05-.02-.05-.05.02-.05.05-.05M335.11,76.65c-1.68,0-3.05,1.37-3.05,3.05s1.37,3.05,3.05,3.05,3.05-1.37,3.05-3.05-1.37-3.05-3.05-3.05h0Z"/>
        </g>
      </g>
      <g>
        <line class="cls-1" x1="445.7" y1="88.33" x2="450.88" y2="81.95"/>
        <line class="cls-1" x1="438.62" y1="75.26" x2="446.79" y2="74.41"/>
        <line class="cls-1" x1="442.85" y1="61.01" x2="449.23" y2="66.19"/>
        <line class="cls-1" x1="455.91" y1="53.93" x2="456.76" y2="62.1"/>
        <line class="cls-1" x1="470.16" y1="58.16" x2="464.99" y2="64.54"/>
        <line class="cls-1" x1="477.24" y1="71.22" x2="469.07" y2="72.08"/>
        <line class="cls-1" x1="473.01" y1="85.47" x2="466.63" y2="80.3"/>
        <line class="cls-1" x1="459.95" y1="92.55" x2="459.1" y2="84.39"/>
      </g>
      <g>
        <line class="cls-1" x1="186.01" y1="150.89" x2="189.43" y2="146.67"/>
        <line class="cls-1" x1="182.11" y1="136.31" x2="187.18" y2="138.26"/>
        <line class="cls-1" x1="194.78" y1="128.09" x2="194.49" y2="133.52"/>
        <line class="cls-1" x1="206.51" y1="137.6" x2="201.26" y2="139"/>
        <line class="cls-1" x1="201.09" y1="151.69" x2="198.13" y2="147.13"/>
      </g>
    </g>
  </g>
</svg>