<?xml version="1.0" encoding="UTF-8"?>
<svg id="Layer_2" data-name="Layer 2" xmlns="http://www.w3.org/2000/svg" viewBox="0 0 204.38 114.35">
  <defs>
    <style>
      .cls-1 {
        fill: none;
        stroke: #000;
        stroke-linecap: round;
        stroke-miterlimit: 10;
        stroke-width: 3px;
      }
    </style>
  </defs>
  <g id="Layer_2-2" data-name="Layer 2">
    <g>
      <g>
        <g>
          <line class="cls-1" x1="83.27" y1="46.44" x2="107.16" y2="46.44"/>
          <polyline class="cls-1" points="100.53 39.8 107.16 46.44 100.53 53.07"/>
        </g>
        <g>
          <line class="cls-1" x1="102.16" y1="69.8" x2="78.27" y2="69.8"/>
          <polyline class="cls-1" points="84.9 76.44 78.27 69.8 84.9 63.17"/>
        </g>
      </g>
      <g>
        <rect class="cls-1" x="1.5" y="40.95" width="19.81" height="34.87"/>
        <polygon class="cls-1" points="21.31 75.82 67.33 111.3 67.33 5.47 21.31 40.95 21.31 75.82"/>
      </g>
      <g>
        <path class="cls-1" d="M179.88,111.74h-61.73V1.5h84.73v87.24l-23,23Z"/>
        <polyline class="cls-1" points="178.34 111.74 178.34 87.2 202.88 87.2"/>
        <line class="cls-1" x1="138.15" y1="21.73" x2="182.88" y2="21.73"/>
        <line class="cls-1" x1="138.15" y1="37.69" x2="182.88" y2="37.69"/>
        <line class="cls-1" x1="138.15" y1="53.65" x2="182.88" y2="53.65"/>
        <line class="cls-1" x1="138.15" y1="69.61" x2="154.91" y2="69.61"/>
      </g>
    </g>
  </g>
</svg>