<?xml version="1.0" encoding="UTF-8"?>
<svg id="Layer_2" data-name="Layer 2" xmlns="http://www.w3.org/2000/svg" viewBox="0 0 640 180">
  <defs>
    <style>
      .cls-1 {
        fill: none;
        stroke: #000;
        stroke-linecap: round;
        stroke-miterlimit: 10;
        stroke-width: 3px;
      }

      .cls-2, .cls-3 {
        stroke-width: 0px;
      }

      .cls-3 {
        fill: #fff;
        opacity: 0;
      }
    </style>
  </defs>
  <g id="Layer_2-2" data-name="Layer 2">
    <g>
      <g>
        <path class="cls-1" d="M320,8.51c-22.46,13.01-72.12,16.7-72.12,16.7,0,0-11.79,110.36,72.12,146.28"/>
        <path class="cls-1" d="M320,8.51c22.46,13.01,72.12,16.7,72.12,16.7,0,0,11.79,110.36-72.12,146.28"/>
        <path class="cls-2" d="M320,51.69c7.98,0,15.35.25,20.14.54,6.78.42,12.31,5.57,13.28,12.3.54,3.75.96,8.14.96,12.7s-.42,8.95-.96,12.7c-.97,6.73-6.5,11.88-13.28,12.3-4.79.3-12.16.54-20.14.54-6.66,0-13.19-.17-17.62-.4l-11.35,5.33c-.85-2.05-1.56-4.27-2.16-6.51,0,0,0,0,0,0,0,0-3.25-11.34-3.25-23.96,0-4.56.42-8.95.96-12.7.97-6.73,6.5-11.88,13.28-12.3,4.79-.3,12.16-.54,20.14-.54M320,48.69c-7.19,0-14.79.21-20.33.55-8.14.51-14.9,6.76-16.07,14.86-.66,4.58-1,8.99-1,13.13,0,12.89,3.23,24.3,3.36,24.78l.17.59c.09.31.17.61.26.91l.08.28h0c.55,1.84,1.14,3.53,1.77,5.04l1.2,2.91,2.85-1.34,10.67-5.01c4.81.23,11.1.37,17.02.37,7.19,0,14.79-.21,20.33-.55,8.14-.51,14.9-6.76,16.07-14.86.66-4.58,1-8.99,1-13.12s-.34-8.55-1-13.13c-1.17-8.11-7.93-14.36-16.07-14.86-5.54-.34-13.13-.55-20.33-.55h0Z"/>
        <g>
          <path class="cls-2" d="M304.89,79.65s.05.02.05.05-.02.05-.05.05-.05-.02-.05-.05.02-.05.05-.05M304.89,76.65c-1.68,0-3.05,1.37-3.05,3.05s1.37,3.05,3.05,3.05,3.05-1.37,3.05-3.05-1.37-3.05-3.05-3.05h0Z"/>
          <path class="cls-2" d="M320,79.65s.05.02.05.05-.02.05-.05.05-.05-.02-.05-.05.02-.05.05-.05M320,76.65c-1.68,0-3.05,1.37-3.05,3.05s1.37,3.05,3.05,3.05,3.05-1.37,3.05-3.05-1.37-3.05-3.05-3.05h0Z"/>
          <path class="cls-2" d="M335.11,79.65s.05.02.05.05-.02.05-.05.05-.05-.02-.05-.05.02-.05.05-.05M335.11,76.65c-1.68,0-3.05,1.37-3.05,3.05s1.37,3.05,3.05,3.05,3.05-1.37,3.05-3.05-1.37-3.05-3.05-3.05h0Z"/>
        </g>
      </g>
      <rect class="cls-3" width="640" height="180"/>
    </g>
  </g>
</svg>