<?xml version="1.0" encoding="UTF-8"?>
<svg id="Layer_2" data-name="Layer 2" xmlns="http://www.w3.org/2000/svg" viewBox="0 0 640 180">
  <defs>
    <style>
      .cls-1 {
        fill: none;
        stroke: #000;
        stroke-linecap: round;
        stroke-miterlimit: 10;
        stroke-width: 3px;
      }

      .cls-2 {
        fill: #fff;
        opacity: 0;
        stroke-width: 0px;
      }
    </style>
  </defs>
  <g id="Layer_2-2" data-name="Layer 2">
    <g>
      <rect class="cls-2" width="640" height="180"/>
      <g>
        <g>
          <g>
            <line class="cls-1" x1="293.45" y1="80.71" x2="326.97" y2="80.71"/>
            <polyline class="cls-1" points="317.67 71.4 326.97 80.71 317.67 90.02"/>
          </g>
          <g>
            <line class="cls-1" x1="319.96" y1="103.5" x2="286.43" y2="103.5"/>
            <polyline class="cls-1" points="295.74 112.81 286.43 103.5 295.74 94.19"/>
          </g>
        </g>
        <g>
          <rect class="cls-1" x="183.7" y="68.01" width="27.79" height="48.93"/>
          <polygon class="cls-1" points="211.5 116.94 276.09 166.74 276.09 18.22 211.5 68.01 211.5 116.94"/>
        </g>
        <g>
          <path class="cls-1" d="M423.3,167.35h-85.9V12.65h118.9v121.7l-33,33Z"/>
          <polyline class="cls-1" points="421.86 167.35 421.86 132.91 456.3 132.91"/>
          <line class="cls-1" x1="365.46" y1="41.03" x2="428.23" y2="41.03"/>
          <line class="cls-1" x1="365.46" y1="63.43" x2="428.23" y2="63.43"/>
          <line class="cls-1" x1="365.46" y1="85.84" x2="428.23" y2="85.84"/>
          <line class="cls-1" x1="365.46" y1="108.24" x2="388.99" y2="108.24"/>
        </g>
      </g>
    </g>
  </g>
</svg>