<?xml version="1.0" encoding="UTF-8"?><svg id="Layer_2" xmlns="http://www.w3.org/2000/svg" viewBox="0 0 320 180"><defs><style>.cls-1{fill:#fff;}</style></defs><g id="Layer_1-2"><rect class="cls-1" width="320" height="180"/><path d="m223.47,25.24h-126.94c-4.17,0-7.57-3.4-7.57-7.57v-.77c0-4.17,3.4-7.57,7.57-7.57h126.94c4.17,0,7.57,3.4,7.57,7.57v.77c0,4.17-3.4,7.57-7.57,7.57Zm-126.94-12.91c-2.52,0-4.57,2.05-4.57,4.57v.77c0,2.52,2.05,4.57,4.57,4.57h126.94c2.52,0,4.57-2.05,4.57-4.57v-.77c0-2.52-2.05-4.57-4.57-4.57h-126.94Z"/><path d="m223.47,170.67h-126.94c-4.17,0-7.57-3.4-7.57-7.57v-.77c0-4.17,3.4-7.57,7.57-7.57h126.94c4.17,0,7.57,3.4,7.57,7.57v.77c0,4.17-3.4,7.57-7.57,7.57Zm-126.94-12.91c-2.52,0-4.57,2.05-4.57,4.57v.77c0,2.52,2.05,4.57,4.57,4.57h126.94c2.52,0,4.57-2.05,4.57-4.57v-.77c0-2.52-2.05-4.57-4.57-4.57h-126.94Z"/><path d="m202.44,157.76h-84.89c-.8,0-1.46-.63-1.5-1.43-1.37-28.62,8.52-50.62,29.39-65.4.31-.22.49-.56.49-.93s-.18-.71-.49-.93c-20.87-14.78-30.76-36.78-29.39-65.4.04-.83.75-1.45,1.57-1.43.83.04,1.47.74,1.43,1.57-1.34,27.92,7.86,48.46,28.13,62.8,1.1.78,1.76,2.04,1.76,3.38s-.66,2.6-1.76,3.38c-19.92,14.1-29.14,34.19-28.19,61.38h82.01c.96-27.19-8.27-47.28-28.19-61.38-1.1-.78-1.76-2.04-1.76-3.38s.66-2.6,1.76-3.38c20.26-14.35,29.46-34.89,28.13-62.8-.04-.83.6-1.53,1.43-1.57.78-.03,1.53.6,1.57,1.43,1.37,28.62-8.52,50.62-29.39,65.4-.31.22-.49.56-.49.93s.18.71.49.93c20.87,14.78,30.76,36.78,29.39,65.4-.04.8-.7,1.43-1.5,1.43Z"/><path d="m104.44,150.31c-.83,0-1.5-.67-1.5-1.5V31.19c0-.83.67-1.5,1.5-1.5s1.5.67,1.5,1.5v117.62c0,.83-.67,1.5-1.5,1.5Z"/><path d="m215.56,150.31c-.83,0-1.5-.67-1.5-1.5V31.19c0-.83.67-1.5,1.5-1.5s1.5.67,1.5,1.5v117.62c0,.83-.67,1.5-1.5,1.5Z"/><path d="m160,82.76c-.54,0-1.03-.29-1.3-.75-1.15-2.01-2.76-3.77-4.64-5.1-9.35-6.62-15.69-14.63-19.39-24.48-.17-.46-.11-.98.17-1.38.28-.4.74-.65,1.23-.65h47.85c.49,0,.95.24,1.23.65.28.4.34.92.17,1.38-3.7,9.86-10.04,17.86-19.39,24.48-1.91,1.35-3.47,3.07-4.64,5.1-.27.46-.76.75-1.3.75Zm-21.71-29.36c3.57,8.36,9.31,15.26,17.5,21.06,1.59,1.13,3.02,2.52,4.21,4.09,1.18-1.57,2.61-2.96,4.21-4.09,8.19-5.8,13.93-12.71,17.5-21.06h-43.42Z"/><path d="m187.27,150.31c-.78,0-1.44-.6-1.49-1.4-.84-12.02-3.2-21.03-7.42-28.26h-37.11c-4.22,7.23-6.58,16.24-7.42,28.26-.06.83-.79,1.46-1.6,1.39-.83-.06-1.45-.77-1.39-1.6.9-12.91,3.53-22.55,8.28-30.33.27-.45.76-.72,1.28-.72h38.81c.52,0,1.01.27,1.28.72,4.75,7.78,7.38,17.42,8.28,30.33.06.83-.57,1.54-1.39,1.6-.04,0-.07,0-.11,0Z"/></g></svg>