<?xml version="1.0" encoding="UTF-8"?>
<svg id="Layer_2" data-name="Layer 2" xmlns="http://www.w3.org/2000/svg" viewBox="0 0 640 180">
  <defs>
    <style>
      .cls-1 {
        fill: none;
        stroke: #000;
        stroke-linecap: round;
        stroke-miterlimit: 10;
        stroke-width: 3px;
      }

      .cls-2 {
        fill: #fff;
        opacity: 0;
        stroke-width: 0px;
      }
    </style>
  </defs>
  <g id="Layer_2-2" data-name="Layer 2">
    <g>
      <rect class="cls-2" width="640" height="180"/>
      <g>
        <g>
          <g>
            <line class="cls-1" x1="283.25" y1="120.33" x2="304.64" y2="120.33"/>
            <polyline class="cls-1" points="297.8 113.49 304.64 120.33 297.8 127.17"/>
          </g>
          <g>
            <line class="cls-1" x1="316.55" y1="114.15" x2="316.55" y2="126.5"/>
            <line class="cls-1" x1="327.24" y1="110.89" x2="327.24" y2="129.76"/>
            <line class="cls-1" x1="337.94" y1="106.27" x2="337.94" y2="134.39"/>
            <line class="cls-1" x1="348.64" y1="100.88" x2="348.64" y2="139.78"/>
            <line class="cls-1" x1="359.33" y1="90.66" x2="359.33" y2="150"/>
            <line class="cls-1" x1="402.11" y1="114.15" x2="402.11" y2="126.5"/>
            <line class="cls-1" x1="391.42" y1="110.89" x2="391.42" y2="129.76"/>
            <line class="cls-1" x1="380.72" y1="106.27" x2="380.72" y2="134.39"/>
            <line class="cls-1" x1="370.03" y1="100.88" x2="370.03" y2="139.78"/>
          </g>
        </g>
        <g>
          <path class="cls-1" d="M337.94,85.5V30h-100.05v98.59c5.74,5.74,8.96,8.96,14.7,14.7h52.49"/>
          <g>
            <line class="cls-1" x1="254.23" y1="46.46" x2="321.59" y2="46.46"/>
            <line class="cls-1" x1="254.23" y1="59.47" x2="321.59" y2="59.47"/>
            <line class="cls-1" x1="254.23" y1="72.49" x2="321.59" y2="72.49"/>
            <line class="cls-1" x1="254.23" y1="85.5" x2="291.7" y2="85.5"/>
          </g>
        </g>
      </g>
    </g>
  </g>
</svg>