<?xml version="1.0" encoding="UTF-8"?>
<svg id="Layer_2" data-name="Layer 2" xmlns="http://www.w3.org/2000/svg" viewBox="0 0 640 180">
  <defs>
    <style>
      .cls-1 {
        fill: none;
        stroke: #000;
        stroke-linecap: round;
        stroke-miterlimit: 10;
        stroke-width: 3px;
      }

      .cls-2, .cls-3 {
        stroke-width: 0px;
      }

      .cls-3 {
        fill: #fff;
        opacity: 0;
      }
    </style>
  </defs>
  <g id="Layer_2-2" data-name="Layer 2">
    <g>
      <rect class="cls-3" width="640" height="180"/>
      <g>
        <path class="cls-1" d="M322.44,30c16.54,9.58,53.1,12.3,53.1,12.3,0,0,8.68,81.26-53.1,107.7-61.78-26.45-53.1-107.7-53.1-107.7,0,0,36.56-2.72,53.1-12.3Z"/>
        <path class="cls-1" d="M294.87,112.27c-4.93-7.99-8.69-17.32-11.25-27.98-3.03-12.6-3.65-24.34-3.64-31.97,11.19-1.36,29.33-4.28,42.47-10,13.14,5.72,31.27,8.64,42.47,10"/>
        <path class="cls-1" d="M364.32,65.49c-.52,5.7-1.45,12.13-3.05,18.8-6.15,25.58-19.2,43.56-38.83,53.52-9.8-4.98-17.96-11.95-24.44-20.88"/>
        <path class="cls-2" d="M322.44,65.55c4.81,0,9.24.15,12.13.33,4.09.25,7.41,3.36,8,7.41.33,2.26.58,4.9.58,7.65s-.26,5.39-.58,7.65c-.58,4.05-3.91,7.15-8,7.41-2.89.18-7.32.33-12.13.33-4.01,0-7.94-.1-10.61-.24l-6.84,3.21c-.51-1.23-.94-2.57-1.3-3.92,0,0,0,0,0,0,0,0-1.96-6.83-1.96-14.43,0-2.74.26-5.39.58-7.65.58-4.05,3.91-7.15,8-7.41,2.89-.18,7.32-.33,12.13-.33M322.44,62.55c-4.35,0-8.96.12-12.31.33-5.46.34-10,4.53-10.78,9.97-.41,2.81-.61,5.53-.61,8.07,0,7.93,1.99,14.96,2.07,15.25l.11.38c.05.17.1.35.15.52l.28.97h.02c.27.85.56,1.65.87,2.38l1.2,2.91,2.85-1.34,6.16-2.89c2.88.13,6.55.21,10.01.21,4.35,0,8.96-.12,12.31-.33,5.46-.34,10-4.53,10.78-9.97.41-2.81.61-5.53.61-8.07s-.21-5.26-.61-8.07c-.79-5.44-5.32-9.63-10.78-9.97-3.36-.21-7.96-.33-12.31-.33h0Z"/>
        <g>
          <path class="cls-2" d="M313.35,82.38s.03.01.03.03-.01.03-.03.03-.03-.01-.03-.03.01-.03.03-.03M313.35,79.38h-3l-.03,3.03v3l3.03.03h3l.03-3.03v-3l-3.03-.03h0Z"/>
          <path class="cls-2" d="M322.44,82.38s.03.01.03.03-.01.03-.03.03-.03-.01-.03-.03.01-.03.03-.03M322.44,79.38h-3l-.03,3.03v3l3.03.03h3l.03-3.03v-3l-3.03-.03h0Z"/>
          <path class="cls-2" d="M331.54,82.38s.03.01.03.03-.01.03-.03.03-.03-.01-.03-.03.01-.03.03-.03M331.54,79.38h-3l-.03,3.03v3l3.03.03h3l.03-3.03v-3l-3.03-.03h0Z"/>
        </g>
      </g>
      <g>
        <line class="cls-1" x1="415" y1="88.77" x2="418.8" y2="84.07"/>
        <line class="cls-1" x1="409.78" y1="79.15" x2="415.79" y2="78.52"/>
        <line class="cls-1" x1="412.89" y1="68.66" x2="417.59" y2="72.47"/>
        <line class="cls-1" x1="422.51" y1="63.44" x2="423.14" y2="69.46"/>
        <line class="cls-1" x1="433" y1="66.55" x2="429.19" y2="71.25"/>
        <line class="cls-1" x1="438.22" y1="76.17" x2="432.2" y2="76.8"/>
        <line class="cls-1" x1="435.11" y1="86.66" x2="430.41" y2="82.86"/>
        <line class="cls-1" x1="425.49" y1="91.88" x2="424.86" y2="85.87"/>
      </g>
      <g>
        <line class="cls-1" x1="223.79" y1="134.83" x2="226.31" y2="131.73"/>
        <line class="cls-1" x1="220.92" y1="124.1" x2="224.65" y2="125.53"/>
        <line class="cls-1" x1="230.24" y1="118.05" x2="230.03" y2="122.04"/>
        <line class="cls-1" x1="238.88" y1="125.05" x2="235.02" y2="126.08"/>
        <line class="cls-1" x1="234.89" y1="135.42" x2="232.71" y2="132.07"/>
      </g>
    </g>
  </g>
</svg>