<?xml version="1.0" encoding="UTF-8"?>
<svg id="Layer_2" xmlns="http://www.w3.org/2000/svg" viewBox="0 0 640 180">
  <defs>
    <style>
      .cls-1 {
        fill: #fff;
        opacity: 0;
      }

      .cls-2 {
        fill: none;
        stroke: #000;
        stroke-linecap: round;
        stroke-miterlimit: 10;
        stroke-width: 3px;
      }
    </style>
  </defs>
  <g id="Layer_2-2" data-name="Layer_2">
    <g>
      <rect class="cls-1" width="640" height="180"/>
      <g>
        <path class="cls-2" d="M241.24,79.68h-9.27s9.27,10.06,9.27,10.06v53.64c0,3.38,2.74,6.12,6.12,6.12h99.91c3.38,0,6.12-2.74,6.12-6.12v-63.7c0-3.38-2.74-6.12-6.12-6.12h-99.91c-3.38,0-6.12,2.74-6.12,6.12h0Z"/>
        <path class="cls-2" d="M376.88,35.62h10.13s-10.13,10.06-10.13,10.06v10.51c0,3.38-2.74,6.12-6.12,6.12h-57.86c-3.38,0-6.12-2.74-6.12-6.12v-20.57c0-3.38,2.74-6.12,6.12-6.12h57.86c3.38,0,6.12,2.74,6.12,6.12h0Z"/>
        <g>
          <path d="M330.5,45.87s.03.02.03.03-.02.03-.03.03-.03-.01-.03-.03.01-.03.03-.03M330.5,42.87c-1.66,0-3.03,1.38-3.03,3.03s1.38,3.03,3.03,3.03,3.03-1.38,3.03-3.03-1.38-3.03-3.03-3.03h0Z"/>
          <path d="M341.08,45.87s.03.02.03.03-.02.03-.03.03-.03-.01-.03-.03.01-.03.03-.03M341.08,42.87c-1.66,0-3.03,1.38-3.03,3.03s1.38,3.03,3.03,3.03,3.03-1.38,3.03-3.03-1.38-3.03-3.03-3.03h0Z"/>
          <path d="M351.67,45.87s.03.02.03.03-.01.03-.03.03-.03-.01-.03-.03.01-.03.03-.03M351.67,42.87c-1.66,0-3.03,1.38-3.03,3.03s1.38,3.03,3.03,3.03,3.03-1.38,3.03-3.03-1.38-3.03-3.03-3.03h0Z"/>
        </g>
        <rect class="cls-2" x="274.35" y="88.57" width="45.93" height="45.93"/>
        <polyline class="cls-2" points="274.35 124.85 285.29 115.63 295.59 125.04 320.27 101.78"/>
        <circle class="cls-2" cx="294.01" cy="103.11" r="7"/>
      </g>
    </g>
  </g>
</svg>