<?xml version="1.0" encoding="UTF-8"?>
<svg id="Layer_2" data-name="Layer 2" xmlns="http://www.w3.org/2000/svg" viewBox="0 0 640 180">
  <defs>
    <style>
      .cls-1 {
        fill: none;
        stroke: #000;
        stroke-linecap: round;
        stroke-miterlimit: 10;
        stroke-width: 3px;
      }

      .cls-2, .cls-3 {
        stroke-width: 0px;
      }

      .cls-3 {
        fill: #fff;
        opacity: 0;
      }
    </style>
  </defs>
  <g id="Layer_2-2" data-name="Layer 2">
    <g>
      <rect class="cls-3" width="640" height="180"/>
      <g>
        <path class="cls-1" d="M241.24,79.68h-9.27s9.27,10.06,9.27,10.06v10.51c0,3.38,2.74,6.12,6.12,6.12h99.91c3.38,0,6.12-2.74,6.12-6.12v-20.57c0-3.38-2.74-6.12-6.12-6.12h-99.91c-3.38,0-6.12,2.74-6.12,6.12h0Z"/>
        <path class="cls-1" d="M397.9,122.81h10.13s-10.13,10.06-10.13,10.06v10.51c0,3.38-2.74,6.12-6.12,6.12h-99.91c-3.38,0-6.12-2.74-6.12-6.12v-20.57c0-3.38,2.74-6.12,6.12-6.12h99.91c3.38,0,6.12,2.74,6.12,6.12h0Z"/>
        <path class="cls-1" d="M376.88,35.62h10.13s-10.13,10.06-10.13,10.06v10.51c0,3.38-2.74,6.12-6.12,6.12h-57.86c-3.38,0-6.12-2.74-6.12-6.12v-20.57c0-3.38,2.74-6.12,6.12-6.12h57.86c3.38,0,6.12,2.74,6.12,6.12h0Z"/>
        <g>
          <line class="cls-1" x1="322.81" y1="128.08" x2="384.59" y2="128.08"/>
          <line class="cls-1" x1="297.58" y1="128.08" x2="316.62" y2="128.08"/>
          <line class="cls-1" x1="297.58" y1="138.11" x2="345.44" y2="138.11"/>
        </g>
        <g>
          <line class="cls-1" x1="311.34" y1="84.95" x2="341.08" y2="84.95"/>
          <line class="cls-1" x1="254.07" y1="84.95" x2="305.43" y2="84.95"/>
          <line class="cls-1" x1="254.07" y1="94.98" x2="282.41" y2="94.98"/>
          <line class="cls-1" x1="288.59" y1="94.98" x2="297.58" y2="94.98"/>
        </g>
        <g>
          <path class="cls-2" d="M330.5,45.87s.03.02.03.03-.02.03-.03.03-.03-.02-.03-.03.01-.03.03-.03M330.5,42.87c-1.66,0-3.03,1.38-3.03,3.03s1.38,3.03,3.03,3.03,3.03-1.38,3.03-3.03-1.38-3.03-3.03-3.03h0Z"/>
          <path class="cls-2" d="M341.08,45.87s.03.02.03.03-.02.03-.03.03-.03-.02-.03-.03.01-.03.03-.03M341.08,42.87c-1.66,0-3.03,1.38-3.03,3.03s1.38,3.03,3.03,3.03,3.03-1.38,3.03-3.03-1.38-3.03-3.03-3.03h0Z"/>
          <path class="cls-2" d="M351.67,45.87s.03.02.03.03-.01.03-.03.03-.03-.02-.03-.03.01-.03.03-.03M351.67,42.87c-1.66,0-3.03,1.38-3.03,3.03s1.38,3.03,3.03,3.03,3.03-1.38,3.03-3.03-1.38-3.03-3.03-3.03h0Z"/>
        </g>
      </g>
    </g>
  </g>
</svg>