<?xml version="1.0" standalone="no"?>
<!DOCTYPE svg PUBLIC "-//W3C//DTD SVG 20010904//EN"
 "http://www.w3.org/TR/2001/REC-SVG-20010904/DTD/svg10.dtd">
<svg version="1.0" xmlns="http://www.w3.org/2000/svg"
 width="512.000000pt" height="512.000000pt" viewBox="0 0 512.000000 512.000000"
 preserveAspectRatio="xMidYMid meet">
<metadata>
Created by potrace 1.14, written by Peter Selinger 2001-2017
</metadata>
<g transform="translate(0.000000,512.000000) scale(0.100000,-0.100000)"
fill="#000000" stroke="none">
<path d="M2419 4793 c-160 -41 -302 -167 -363 -323 -25 -64 -27 -75 -33 -171
-9 -153 43 -287 153 -397 61 -61 64 -66 64 -112 l0 -47 -82 -2 c-46 -1 -101
-4 -123 -6 -22 -1 -94 -6 -160 -9 -66 -4 -136 -9 -155 -11 -19 -2 -71 -7 -115
-10 -486 -38 -904 -317 -1116 -747 -41 -81 -99 -243 -99 -273 0 -12 -17 -15
-105 -15 l-104 0 -42 -131 c-59 -189 -79 -313 -79 -493 0 -83 3 -173 6 -201 9
-86 45 -231 99 -400 l13 -40 108 -5 108 -5 9 -35 c32 -130 114 -305 199 -427
98 -141 280 -309 413 -383 172 -96 345 -158 490 -175 69 -9 125 -14 205 -20
47 -3 106 -8 132 -10 336 -27 1064 -27 1428 0 30 2 91 7 135 10 154 11 211 19
305 41 460 106 835 451 976 898 15 45 28 87 30 94 2 8 33 12 108 12 l105 0 30
93 c26 82 57 196 77 282 3 17 8 122 10 235 4 243 -8 319 -87 568 l-30 92 -102
0 -102 0 -22 80 c-108 388 -427 729 -818 873 -81 30 -210 63 -275 71 -165 20
-502 43 -662 45 l-78 1 0 49 c0 46 3 52 63 113 167 171 203 407 96 621 -38 76
-154 192 -225 226 -27 12 -56 27 -65 31 -59 30 -225 37 -320 13z m265 -236
c154 -71 224 -258 152 -408 -30 -64 -77 -112 -143 -148 l-48 -26 0 -163 c0
-184 9 -220 68 -259 41 -28 59 -31 242 -38 83 -3 179 -7 215 -10 36 -2 106 -7
155 -10 245 -16 340 -32 477 -81 364 -132 655 -477 714 -849 3 -22 9 -58 13
-80 l7 -40 113 0 114 0 14 -40 c13 -39 18 -59 29 -124 3 -18 8 -43 11 -55 3
-11 7 -86 9 -166 2 -148 -16 -300 -49 -395 l-14 -40 -109 -1 c-60 -1 -114 -2
-119 -3 -6 -1 -17 -40 -23 -87 -51 -352 -282 -667 -609 -833 -154 -77 -284
-106 -573 -126 -47 -4 -107 -8 -135 -10 -311 -23 -1034 -24 -1265 -1 -19 2
-80 7 -135 11 -207 14 -232 16 -305 31 -347 70 -631 287 -787 601 -63 128
-113 296 -113 384 0 16 -6 30 -12 30 -7 1 -62 2 -123 3 l-109 1 -13 45 c-38
128 -47 197 -47 365 0 137 4 188 21 265 36 159 23 146 153 145 61 -1 113 2
116 6 2 4 7 29 10 56 45 402 337 768 722 906 116 43 198 59 352 72 222 18 275
21 505 30 83 3 166 10 186 16 42 11 97 62 106 99 4 14 7 97 7 185 l1 160 -48
26 c-191 103 -230 344 -81 493 92 92 230 117 348 63z"/>
<path d="M2367 3154 c-1 -1 -108 -4 -237 -8 -304 -9 -351 -13 -443 -45 -105
-37 -179 -83 -263 -166 -181 -179 -229 -353 -229 -830 0 -110 4 -234 8 -275
11 -101 35 -265 47 -320 5 -25 12 -58 15 -75 3 -16 17 -73 31 -125 14 -52 29
-108 33 -125 10 -36 131 -337 141 -348 3 -4 123 48 266 115 l259 121 175 -3
c357 -7 891 0 1025 14 179 18 310 81 437 209 165 165 221 368 222 807 0 133
-8 296 -18 345 -2 11 -7 47 -11 80 -39 327 -303 583 -628 610 -95 8 -823 24
-830 19z m753 -238 c155 -12 243 -45 328 -121 141 -127 178 -271 177 -700 -1
-189 -5 -271 -20 -357 -3 -15 -7 -41 -10 -56 -23 -136 -131 -274 -258 -332
-109 -49 -144 -51 -837 -54 l-565 -3 -145 -67 c-80 -36 -157 -73 -171 -81 -26
-14 -27 -14 -42 23 -37 83 -89 279 -112 422 -4 25 -9 54 -11 65 -2 11 -6 40
-9 65 -3 25 -7 54 -10 65 -16 85 -25 380 -14 503 19 219 30 282 61 352 25 56
85 132 135 172 90 71 174 96 352 104 75 3 137 7 139 9 6 5 935 -3 1012 -9z"/>
<path d="M1865 2321 c-59 -28 -103 -76 -120 -134 -20 -67 -19 -96 4 -149 39
-86 106 -133 199 -137 198 -9 305 232 165 373 -63 64 -169 84 -248 47z"/>
<path d="M2461 2320 c-163 -76 -170 -307 -12 -394 84 -45 187 -32 256 33 43
40 62 74 70 128 12 84 -23 164 -97 217 -55 39 -152 47 -217 16z"/>
<path d="M3064 2321 c-78 -36 -123 -99 -129 -183 -12 -176 163 -292 322 -213
112 56 154 197 90 305 -56 96 -182 137 -283 91z"/>
</g>
</svg>
